# xmcd CD database file
#
# Track frame offsets:
#	150
#	20880
#	44418
#	69359
#	87406
#	109518
#	127883
#	146714
#	165625
#	189658
#	211434
#	233217
#	249697
#
# Disc length: 3576 seconds
#
# Revision: 0
# Processed by: cddbd v1.5.2PL0 Copyright (c) Steve Scherf et al.
# Submitted via: CDex 1.51
#
DISCID=bb0df60d
DTITLE=William White - Evolution
DYEAR=1900
DGENRE=Blues
TTITLE0=Evolution
TTITLE1=Can't Stop Loving You
TTITLE2=Someone to Hold You
TTITLE3=Just For Me
TTITLE4=Mellowson
TTITLE5=Try a Little Love
TTITLE6=Time to Make a Change
TTITLE7=Sweet Love
TTITLE8=Take it or Leave it
TTITLE9=Sweet Soul Loving
TTITLE10=All in All
TTITLE11=Mercy
TTITLE12=If Only I Could (for my children)
EXTD=
EXTT0=
EXTT1=
EXTT2=
EXTT3=
EXTT4=
EXTT5=
EXTT6=
EXTT7=
EXTT8=
EXTT9=
EXTT10=
EXTT11=
EXTT12=
PLAYORDER=
